<svg width="16" height="16" viewBox="0 0 16 16" fill="none" xmlns="http://www.w3.org/2000/svg">
<g id="lock_black_24dp 1" clip-path="url(#clip0_1_5013)">
<path id="Vector" d="M11.8194 5.33334H11.1628V4.00001C11.1628 2.16001 9.69193 0.666672 7.8796 0.666672C6.06727 0.666672 4.59639 2.16001 4.59639 4.00001V5.33334H3.93975C3.21744 5.33334 2.62646 5.93334 2.62646 6.66667V13.3333C2.62646 14.0667 3.21744 14.6667 3.93975 14.6667H11.8194C12.5418 14.6667 13.1327 14.0667 13.1327 13.3333V6.66667C13.1327 5.93334 12.5418 5.33334 11.8194 5.33334ZM7.8796 11.3333C7.15729 11.3333 6.56631 10.7333 6.56631 10C6.56631 9.26667 7.15729 8.66667 7.8796 8.66667C8.6019 8.66667 9.19288 9.26667 9.19288 10C9.19288 10.7333 8.6019 11.3333 7.8796 11.3333ZM5.90967 5.33334V4.00001C5.90967 2.89334 6.78957 2.00001 7.8796 2.00001C8.96962 2.00001 9.84952 2.89334 9.84952 4.00001V5.33334H5.90967Z" fill="#939CA3"/>
</g>
<defs>
<clipPath id="clip0_1_5013">
<rect width="15.7594" height="16" fill="white"/>
</clipPath>
</defs>
</svg>
