<svg width="16" height="11" viewBox="0 0 16 11" fill="none" xmlns="http://www.w3.org/2000/svg">
<path id="Vector" d="M8.00008 0.666656C4.66675 0.666656 1.82008 2.73999 0.666748 5.66666C1.82008 8.59332 4.66675 10.6667 8.00008 10.6667C11.3334 10.6667 14.1801 8.59332 15.3334 5.66666C14.1801 2.73999 11.3334 0.666656 8.00008 0.666656ZM8.00008 8.99999C6.16008 8.99999 4.66675 7.50666 4.66675 5.66666C4.66675 3.82666 6.16008 2.33332 8.00008 2.33332C9.84008 2.33332 11.3334 3.82666 11.3334 5.66666C11.3334 7.50666 9.84008 8.99999 8.00008 8.99999ZM8.00008 3.66666C6.89341 3.66666 6.00008 4.55999 6.00008 5.66666C6.00008 6.77332 6.89341 7.66666 8.00008 7.66666C9.10675 7.66666 10.0001 6.77332 10.0001 5.66666C10.0001 4.55999 9.10675 3.66666 8.00008 3.66666Z" fill="#6D747A"/>
</svg>
